<svg width="40" class="rellax l_logo" version="1.1" id="" xmlns="http://www.w3.org/2000/svg" xmlns:xlink="http://www.w3.org/1999/xlink" x="0px" y="0px" viewBox="0 0 27.8 26.7"  xml:space="preserve"><path fill="#FE3048" class="st1" d="M0.5,19.4C0.2,19,0,18.7,0,18.2c0-0.4,0.2-0.8,0.5-1.1L17.1,0.5C17.4,0.2,17.8,0,18.2,0c0.4,0,0.8,0.2,1.1,0.5
		c0.3,0.3,0.5,0.7,0.5,1.1c0,0.4-0.2,0.8-0.5,1.1L2.7,19.4c-0.3,0.3-0.7,0.5-1.1,0.5C1.2,19.8,0.8,19.7,0.5,19.4z M12.4,25.6
		c-0.3,0.3-0.8,0.6-1.3,0.8s-1,0.3-1.5,0.3c-0.5,0-1.1-0.1-1.6-0.3c-0.5-0.2-1.1-0.5-1.5-1l-2.1-2.1c-0.4-0.4-0.6-0.8-0.5-1.2
		c0.1-0.4,0.4-0.8,0.9-1.3L20.6,5c0.3-0.3,0.7-0.5,1.1-0.5c0.4,0,0.8,0.2,1.1,0.5c0.3,0.3,0.5,0.7,0.5,1.1c0,0.4-0.2,0.8-0.5,1.1
		l-15,15L9,23.4c0.2,0.2,0.4,0.2,0.6,0.2c0.2,0,0.5-0.1,0.7-0.4L25.1,8.4C25.4,8.1,25.8,8,26.2,8c0.4,0,0.8,0.2,1.1,0.5
		c0.3,0.3,0.5,0.7,0.5,1.1c0,0.4-0.2,0.8-0.5,1.1L12.4,25.6z"></path></svg>